<?xml version="1.0" encoding="utf-8"?>
<!-- Generator: Adobe Illustrator 19.1.0, SVG Export Plug-In . SVG Version: 6.00 Build 0)  -->
<svg version="1.1"
	 id="svg2989" xmlns:dc="http://purl.org/dc/elements/1.1/" xmlns:rdf="http://www.w3.org/1999/02/22-rdf-syntax-ns#" xmlns:cc="http://creativecommons.org/ns#" inkscape:version="0.48.3.1 r9886" sodipodi:docname="angle_down_font_awesome.svg" xmlns:svg="http://www.w3.org/2000/svg" xmlns:sodipodi="http://sodipodi.sourceforge.net/DTD/sodipodi-0.dtd" xmlns:inkscape="http://www.inkscape.org/namespaces/inkscape"
	 xmlns="http://www.w3.org/2000/svg" xmlns:xlink="http://www.w3.org/1999/xlink" x="0px" y="0px" viewBox="0 0 960 560"
	 style="enable-background:new 0 0 960 560;" xml:space="preserve">
<style type="text/css">
	.st0{fill:#FFFFFF;}
</style>
<sodipodi:namedview  objecttolerance="10" bordercolor="#666666" pagecolor="#ffffff" borderopacity="1" guidetolerance="10" gridtolerance="10" inkscape:zoom="0.13169643" showgrid="false" inkscape:cy="896" inkscape:cx="896" inkscape:pageshadow="2" inkscape:window-width="640" inkscape:window-height="480" inkscape:pageopacity="0" inkscape:window-x="0" inkscape:window-y="25" inkscape:window-maximized="0" inkscape:current-layer="svg2989" id="namedview2995">
	</sodipodi:namedview>
<g id="g2991" transform="matrix(1,0,0,-1,288.54238,1255.0508)">
	<path id="path2993" inkscape:connector-curvature="0" class="st0" d="M337.6,1288.8c0-2.7-1-5.1-3.1-7.2L188.8,1136
		c-2.1-2.1-4.5-3.1-7.2-3.1s-5.1,1-7.2,3.1L28.8,1281.7c-2.1,2.1-3.1,4.5-3.1,7.2s1,5.1,3.1,7.2l15.6,15.6c2.1,2.1,4.5,3.1,7.2,3.1
		c2.7,0,5.1-1,7.2-3.1l122.8-122.8l122.8,122.8c2.1,2.1,4.5,3.1,7.2,3.1s5.1-1,7.2-3.1l15.6-15.6
		C336.5,1294,337.6,1291.6,337.6,1288.8z"/>
</g>
</svg>
